PathFileType	4	(X/Y/Z)	70_2_68_p0_0-241_filt_butterworth.trc
DataRate	CameraRate	NumFrames	NumMarkers	Units	OrigDataRate	OrigDataStartFrame	OrigNumFrames
60.0	60.0	4	27	m	60.0	0	241
Frame#	Time	RHip			RKnee			RAnkle			RBigToe			RSmallToe			RHeel			LHip			LKnee			LAnkle			LBigToe			LSmallToe			LHeel			Neck			Head			Nose			RShoulder			RElbow			RWrist			RThumb			RIndex			RPinky			LShoulder			LElbow			LWrist			LThumb			LIndex			LPinky			
		X1	Y1	Z1	X2	Y2	Z2	X3	Y3	Z3	X4	Y4	Z4	X5	Y5	Z5	X6	Y6	Z6	X7	Y7	Z7	X8	Y8	Z8	X9	Y9	Z9	X10	Y10	Z10	X11	Y11	Z11	X12	Y12	Z12	X13	Y13	Z13	X14	Y14	Z14	X15	Y15	Z15	X16	Y16	Z16	X17	Y17	Z17	X18	Y18	Z18	X19	Y19	Z19	X20	Y20	Z20	X21	Y21	Z21	X22	Y22	Z22	X23	Y23	Z23	X24	Y24	Z24	X25	Y25	Z25	X26	Y26	Z26	X27	Y27	Z27	
0	0.0	0.37329426961756207	0.5334507193549765	0.07716240390936009	0.3874576675734083	0.7006051368319699	0.47594819797315624	0.3860332862332407	0.8177438165748911	0.9146632461037176	0.3151872800679365	0.6608709978052274	1.0131622775213076	0.3915210810998354	0.6472109281124502	0.9958283036689703	0.36290353536620584	0.9415986006838557	0.9924649133817375	0.13909657044069207	0.6062169240012293	0.07317865886806432	0.1569132828758423	0.7330361396148659	0.4861276856235758	0.16523886442504437	0.8430476263622068	0.9040089808207179	0.17165914819917644	0.6577271852015463	0.9903176512705407	0.11517842879563703	0.7174840179692339	0.979963359442652	0.18415837956334277	0.8795143220336824	0.9331616704807473	0.2394467643710252	0.41841151597112963	-0.5650052482987135	0.22266947890330016	0.32034957099104744	-0.8235718337345068	0.21227866926660297	0.2677830333391554	-0.6707633807072807	0.42933062611004547	0.4418816077213157	-0.4630204394957495	0.4978538789467969	0.468587242045587	-0.16670328117965078	0.4830485952056344	0.5047285912479456	0.12115148515233845	0.42329364925795254	0.5015955200921763	0.23930019300268268	0.43837904272967876	0.4815536564512848	0.26831167425119806	0.4828435246216855	0.55148470009652	0.2715159244005946	0.08144681373739303	0.5119719788629865	-0.4702837796256315	0.02617139952815131	0.5903809011610804	-0.17660436250664108	0.020929826380556227	0.6075795280269985	0.09366999914240602	0.07510503720684614	0.5581775126668729	0.19148783404272735	0.056307434794760594	0.5448339441254221	0.21744421871605912	0.0324833552219487	0.6181833252161056	0.22439774429667428
1	0.0166666666666666	0.37449185460346845	0.5240765960992602	0.07899518127901452	0.3863828535224417	0.7007243451367908	0.47920996572612395	0.38693091166967836	0.8195029831274845	0.917040774052023	0.32028883199577085	0.6644117909256221	1.0136294526525016	0.3904695531842058	0.6432231950973781	0.9904301784192833	0.362812479656824	0.9409022095172819	0.9929069470181575	0.1389216979699776	0.6067861465370015	0.07486263049139871	0.15689791393499886	0.7329944508315926	0.48632419664169957	0.16528481593034602	0.8430395416500722	0.9039945487992921	0.1749166569301151	0.6662864322636974	0.9965719539391481	0.11710927743050482	0.708217682758409	0.9767451629869954	0.187207486893933	0.8863262504612118	0.939495743706252	0.23940736886081532	0.4184016758115115	-0.5649831982373091	0.2227517926443437	0.32059999846980125	-0.8219188665199388	0.21219099804882324	0.2675514298278229	-0.6707270177224753	0.42832226948269725	0.4500363456605878	-0.4655078455111722	0.49778510837086404	0.46839776086889573	-0.16664679061856694	0.4831090174713256	0.5035473944572646	0.12251170958576593	0.42211030445982034	0.5123471839382113	0.24193596100370246	0.4400757008116121	0.4950521201068275	0.27168474966598277	0.4877076945768722	0.5440452382546859	0.27222113719239194	0.08131162868285365	0.5117155525412606	-0.472571875227448	0.026545883574450767	0.5903648171463821	-0.179591855862348	0.02104402374535746	0.6078809003189742	0.0970357439129523	0.07658999848416914	0.5560891649251041	0.19444049867133795	0.05662912640041283	0.5459215551284005	0.22023838054580414	0.03247847560236703	0.61951208131846	0.22754056085937688
2	0.0333333333333333	0.3751993404210863	0.5184034041762038	0.08012012043858396	0.38626110140376113	0.7009265666770365	0.4810647800386045	0.3874834150592878	0.820425460141765	0.9189873141564987	0.3235010515453511	0.6663566054499037	1.0138864308848752	0.3904656350456567	0.6423376781806687	0.9875661624385801	0.3627953929613053	0.9403874681214761	0.9941687811296804	0.13816009942933297	0.607299174248207	0.0764760809819155	0.15688673209132312	0.7329295003301004	0.48643180520143536	0.16538856224154952	0.8428452454942313	0.9040166561173185	0.17591792484086594	0.6687007454469349	0.9993791918267177	0.11824930204921269	0.7025246481504307	0.9747895138647024	0.18964052335775552	0.8909740231652813	0.9443869823178449	0.2393833421940452	0.4184102058935847	-0.564980410967485	0.2227788968846665	0.32070519987931617	-0.8215015135602448	0.2120904705105529	0.26728207987537805	-0.670684460822812	0.42771637611688823	0.45487359159018115	-0.46767349772261524	0.4978218379720789	0.4684219600604994	-0.1666165735553921	0.4834391592320673	0.5004248358863626	0.12321299189814389	0.4217548552422197	0.5195912525696063	0.24432801348415104	0.4417238173805954	0.5065016269015719	0.2743529785231148	0.49098851928129766	0.5376141783119828	0.2730015359492158	0.08126703594057036	0.5114240039461394	-0.4739418505931473	0.026699062274940604	0.5900708922756626	-0.18081554267213534	0.02125663300146649	0.6077282917926834	0.1001523676313166	0.0759682909551822	0.5562232263143702	0.19838473872239978	0.056174787299279244	0.5470049740216116	0.2244095767406341	0.031098405049749256	0.6215850104655006	0.22981387928180272
3	0.05	0.37538526324116717	0.5167431403204533	0.08045700352180465	0.3868379126903464	0.7010720385090894	0.48153634198875905	0.3876481312590154	0.8205248416982233	0.920116636576822	0.3238288357041783	0.6665272537029514	1.0139441719710371	0.3911123344047165	0.643705190685581	0.986896976360468	0.3628971551031412	0.9402378164152561	0.9960653867864172	0.1369223233565287	0.6075504681296844	0.07761162827374184	0.15688423502631238	0.7328589305932685	0.48643331335626644	0.16561115634355653	0.8424970212355151	0.904193227613084	0.174754250625144	0.6652611516330679	0.9982430189630309	0.11855562736288167	0.7007241573999532	0.9741811713506645	0.19065905928135635	0.891541828802533	0.9470368176790404	0.23937634628411644	0.41843403784098737	-0.5650063601621855	0.2227546803320472	0.3206735008759842	-0.8222431138935674	0.21210387961943722	0.2672929974210513	-0.6707021417250975	0.42754369248788354	0.45621431705482984	-0.4688429257241473	0.497948134972133	0.46867497935487373	-0.16663531631345052	0.48414095348062886	0.4957355778831186	0.12271262379276768	0.42266331635183296	0.5222578475106175	0.24606020039206042	0.44337907655610204	0.5105342037275652	0.27593532239991614	0.49233883752390645	0.5336923100152368	0.2732185234143613	0.08130804616405402	0.5111139290310045	-0.47434868493638416	0.026303729200972348	0.5885609919420604	-0.1805381412074847	0.021761133971635822	0.606299142257377	0.10253528777343504	0.07273650349507398	0.5566523797207306	0.20300913299345064	0.05457846595437835	0.547948872470124	0.22966690759337802	0.028320595361730157	0.6242606059328262	0.23131433751901903
